<?xml version="1.0" encoding="utf-8"?>
<svg version="1.0" xmlns="http://www.w3.org/2000/svg" width="1080.000000pt" height="1080.000000pt" viewBox="0 0 1080.000000 1080.000000" preserveAspectRatio="xMidYMid meet">
  <g transform="translate(0.000000,1080.000000) scale(0.100000,-0.100000)" fill="#000000" stroke="none">
    <path d="M4925 10019 c-1040 -38 -2019 -170 -3010 -405 -325 -78 -304 -71 -298 -93 4 -16 1 -19 -15 -14 -22 5 -24 1 -86 -222 -225 -808 -294 -1735 -196 -2605 35 -309 37 -317 68 -385 99 -210 366 -337 859 -410 210 -30 223 -31 223 -7 0 12 14 25 40 37 22 10 40 22 40 27 0 5 -18 52 -40 104 -316 741 -372 1466 -170 2198 42 153 125 389 168 475 l27 55 115 33 c1339 383 2673 462 3980 237 447 -77 1069 -230 1179 -289 107 -59 171 -165 179 -296 l4 -77 -83 -5 c-434 -29 -572 -44 -848 -93 -417 -73 -823 -195 -1216 -364 -116 -50 -393 -185 -485 -238 -381 -216 -742 -472 -1021 -724 -48 -43 -91 -78 -96 -78 -6 0 -53 -48 -105 -107 -410 -466 -613 -816 -635 -1093 -7 -91 8 -169 48 -248 117 -236 456 -346 1009 -329 113 4 230 9 260 13 l55 5 -85 -81 c-335 -320 -732 -557 -1140 -680 -139 -42 -289 -74 -425 -90 -137 -17 -470 -14 -621 5 -303 39 -627 129 -931 260 l-123 53 -22 -41 c-19 -33 -31 -43 -63 -50 -22 -6 -41 -10 -42 -11 -6 -5 82 -318 125 -446 499 -1478 1730 -2528 3632 -3096 118 -35 222 -68 230 -73 17 -9 468 136 708 228 1214 465 2088 1103 2639 1926 599 896 802 2013 607 3340 l-17 110 -89 0 c-81 0 -89 -2 -93 -20 -2 -11 -14 -85 -25 -165 -124 -858 -272 -1389 -435 -1557 -74 -77 -117 -71 -208 25 -80 87 -191 279 -272 472 -15 36 -30 69 -34 73 -5 4 -26 1 -47 -7 -21 -8 -58 -20 -81 -26 -24 -6 -43 -14 -43 -18 0 -4 9 -59 20 -122 69 -394 63 -823 -16 -1179 -197 -882 -812 -1623 -1864 -2246 -148 -88 -474 -259 -617 -326 l-112 -52 -58 23 c-81 32 -418 195 -537 259 -448 242 -841 536 -1217 911 -203 202 -325 341 -487 555 -103 135 -312 440 -312 455 0 4 33 1 73 -7 478 -92 987 -109 1397 -47 995 149 1811 727 2432 1722 198 317 358 638 529 1062 l87 215 -47 21 c-25 11 -60 32 -76 47 l-31 25 -154 -155 c-346 -347 -662 -568 -950 -661 -321 -104 -606 -49 -875 169 -36 29 -65 56 -65 60 0 19 250 222 450 365 569 409 1180 693 1839 859 390 97 726 146 1151 165 124 6 238 12 253 13 23 1 48 24 130 120 271 317 471 625 572 881 73 186 99 386 71 541 -26 138 -97 276 -195 374 -242 244 -557 357 -1391 500 -774 133 -1447 200 -2220 221 -395 11 -552 11 -875 -1z m3642 -371 c-3 -8 -6 -5 -6 6 -1 11 2 17 5 13 3 -3 4 -12 1 -19z" style="fill: rgb(238, 198, 133);"/>
  </g>
</svg>