<?xml version="1.0" encoding="utf-8"?>
<svg version="1.0" xmlns="http://www.w3.org/2000/svg" width="1080.000000pt" height="1080.000000pt" viewBox="0 0 1080.000000 1080.000000" preserveAspectRatio="xMidYMid meet">
  <ellipse style="stroke: rgb(0, 0, 0); fill: rgb(238, 198, 133);" cx="539.166" cy="535.495" rx="476.441" ry="459.092"/>
  <g transform="translate(0.000000,1080.000000) scale(0.100000,-0.100000)" fill="#000000" stroke="none">
    <path d="M5095 10683 c-415 -20 -916 -115 -1330 -250 -1124 -368 -2081 -1088 -2747 -2068 -464 -682 -762 -1475 -867 -2300 -58 -456 -52 -982 15 -1435 176 -1195 760 -2302 1640 -3112 713 -654 1555 -1092 2485 -1292 335 -72 613 -103 989 -113 846 -20 1664 156 2416 521 551 268 1021 603 1453 1037 830 833 1357 1912 1500 3069 98 796 21 1582 -229 2330 -88 263 -159 436 -286 690 -552 1107 -1471 1983 -2604 2483 -684 301 -1415 452 -2164 445 -116 -1 -238 -3 -271 -5z m960 -1634 c236 -12 704 -52 931 -79 490 -60 1152 -177 1387 -245 415 -120 672 -327 742 -600 20 -77 21 -248 1 -340 -61 -288 -278 -650 -625 -1045 l-39 -45 -200 -7 c-1152 -39 -2176 -432 -3044 -1167 l-78 -66 43 -39 c185 -170 437 -246 670 -202 295 57 596 248 966 612 l153 152 33 -29 c18 -16 47 -34 64 -40 17 -6 31 -18 31 -26 0 -8 -33 -96 -74 -196 -595 -1464 -1444 -2273 -2590 -2467 -203 -34 -344 -43 -631 -37 -267 5 -394 18 -634 62 -46 9 -86 14 -89 11 -2 -3 34 -63 81 -134 468 -703 1058 -1234 1800 -1621 159 -83 417 -201 440 -201 7 0 105 45 217 100 564 279 996 576 1346 925 650 649 909 1422 774 2307 -11 70 -22 138 -25 150 -5 21 1 25 74 48 l80 26 27 -66 c79 -188 167 -342 242 -422 77 -82 120 -96 170 -53 148 125 301 660 407 1425 8 63 17 124 20 135 4 18 12 20 84 20 55 0 82 -3 85 -12 10 -24 55 -421 66 -565 13 -189 13 -546 0 -719 -41 -525 -160 -969 -375 -1404 -183 -370 -378 -639 -684 -946 -358 -358 -747 -628 -1286 -894 -333 -164 -600 -274 -940 -384 -88 -29 -186 -61 -217 -72 l-57 -20 -218 66 c-1712 520 -2804 1441 -3249 2740 -40 115 -124 405 -124 426 0 5 16 11 36 15 32 6 63 37 76 77 2 4 50 -14 108 -39 141 -62 428 -156 575 -189 207 -46 324 -58 555 -59 238 -1 357 13 556 64 383 99 779 326 1109 635 l70 65 -70 -7 c-109 -11 -501 -7 -593 6 -275 40 -448 135 -524 288 -44 89 -51 209 -19 333 37 149 152 360 310 570 99 132 313 380 327 380 4 0 43 33 88 73 171 154 407 333 626 474 359 231 710 400 1110 533 437 146 841 223 1326 252 l204 12 0 41 c0 59 -26 149 -56 194 -59 90 -150 127 -544 226 -1079 270 -2167 313 -3245 130 -397 -68 -1013 -221 -1037 -257 -18 -28 -108 -270 -141 -378 -79 -261 -116 -485 -124 -760 -13 -440 63 -834 246 -1265 l50 -117 -40 -17 c-24 -10 -39 -23 -39 -33 0 -23 -12 -23 -185 2 -505 73 -758 212 -810 443 -17 78 -51 406 -66 637 -16 240 -6 701 21 950 39 372 97 686 192 1033 44 161 53 187 68 182 13 -4 17 -1 16 12 -1 14 26 23 154 55 907 220 1826 349 2765 388 242 10 858 4 1150 -11z" style="fill: rgb(8, 38, 56);"/>
  </g>
</svg>