<?xml version="1.0" encoding="utf-8"?>
<svg version="1.0" xmlns="http://www.w3.org/2000/svg" width="1080.000000pt" height="1080.000000pt" viewBox="0 0 1080.000000 1080.000000" preserveAspectRatio="xMidYMid meet">
  <rect x="144.133" y="145.802" width="831.437" height="848.786" style="fill: rgb(216, 216, 216); stroke: rgb(0, 0, 0);"/>
  <g transform="translate(0.000000,1080.000000) scale(0.100000,-0.100000)" fill="#000000" stroke="none">
    <path d="M987 10634 c-437 -79 -757 -404 -822 -834 -13 -82 -15 -692 -15 -4400 0 -4670 -3 -4401 53 -4565 113 -329 360 -558 705 -653 l97 -27 4395 0 4395 0 97 27 c226 62 398 172 533 341 113 141 184 301 210 477 22 143 22 8657 0 8800 -32 215 -123 395 -277 553 -123 125 -277 213 -466 265 l-97 27 -4365 2 c-3734 1 -4376 -1 -4443 -13z m4585 -2811 l1278 -1278 0 -1120 0 -1120 -1603 1603 -1602 1602 -108 0 -107 0 0 -2900 0 -2900 -635 0 -635 0 0 3690 0 3690 928 3 c510 1 990 3 1067 5 l140 2 1277 -1277z m3068 -2422 l0 -3690 -1072 -3 -1073 -3 -1272 1270 -1273 1270 0 1115 0 1115 1593 -1593 1592 -1592 118 0 117 0 0 2900 0 2900 635 0 635 0 0 -3689z" style="fill: rgb(45, 103, 231);"/>
  </g>
</svg>